<svg width="512" height="512" xmlns="http://www.w3.org/2000/svg" enable-background="new 0 0 512 512">

 <g>
  <title>Layer 1</title>
  <path id="svg_1" fill="#f2a74e" d="m184.433,484.431l-12.195,8.072c-11.469,7.592 -26.92,4.449 -34.512,-7.02l-48.892,-73.86c-7.592,-11.469 -4.449,-26.92 7.02,-34.512l12.195,-8.072c11.469,-7.592 26.92,-4.449 34.512,7.02l48.892,73.86c7.591,11.469 4.449,26.921 -7.02,34.512z"/>
  <path id="svg_2" fill="#ffb636" d="m354.2721,165.453c-44.399,-67.074 -105.822,-117.573 -129.834,-101.678c-2.905,1.923 -5.123,4.737 -6.711,8.304c-0.117,0.19 -0.231,0.383 -0.336,0.591c-16.442,32.736 -165.25,189.545 -199.864,223.009c-3.957,3.826 -6.691,8.731 -7.841,14.113c-3.141,14.703 -6.169,45.422 13.231,74.728c19.539,29.518 49.978,38.597 65.006,41.348c5.346,0.979 10.851,0.388 15.856,-1.729c43.952,-18.591 246.136,-93.953 282.547,-96.289c1.1,-0.071 2.156,-0.212 3.175,-0.406c2.846,-0.368 5.411,-1.271 7.65,-2.754c1.19,-0.788 2.261,-1.73 3.226,-2.806c2.052,-2.034 3.6,-4.48 4.593,-7.18c-0.284,0.486 -0.605,0.924 -0.947,1.334c11.177,-26.161 -10.9,-91.893 -49.751,-150.585z"/>
  <path id="svg_3" fill="#cc883e" d="m341.246,173.821c38.761,58.556 59.99,124.085 40.994,136.66c-18.997,12.575 -71.026,-32.566 -109.787,-91.122s-59.99,-124.085 -40.994,-136.66s71.025,32.565 109.787,91.122z"/>
  <path id="svg_4" fill="#ffd469" d="m66.676,328.848c-4.824,0 -9.641,-1.878 -13.264,-5.614c-7.101,-7.324 -6.92,-19.019 0.405,-26.119l43.134,-41.818c7.325,-7.101 19.019,-6.92 26.119,0.405c7.101,7.324 6.92,19.018 -0.405,26.119l-43.134,41.818c-3.587,3.477 -8.224,5.209 -12.855,5.209z"/>
  <path id="svg_5" fill="#59cafc" d="m393.301,130.912l74.018,-73.312c3.143,-3.113 8.341,-2.601 10.816,1.064l17.075,25.279c2.352,3.482 1.16,8.235 -2.557,10.195l-91.093,48.032c-3.186,1.68 -7.126,0.692 -9.142,-2.293c-1.898,-2.811 -1.528,-6.577 0.883,-8.965zm12.241,62.958c0.575,2.808 3.171,4.732 6.025,4.466l81.588,-7.616c3.329,-0.311 5.651,-3.443 4.98,-6.719l-4.868,-23.78c-0.706,-3.448 -4.372,-5.405 -7.63,-4.072l-76.72,31.397c-2.499,1.022 -3.917,3.678 -3.375,6.324zm-60.917,-86.577c2.392,1.579 5.589,1.104 7.418,-1.102l52.306,-63.077c2.134,-2.574 1.561,-6.43 -1.229,-8.272l-20.257,-13.373c-2.937,-1.939 -6.914,-0.73 -8.274,2.516l-32.048,76.45c-1.046,2.489 -0.17,5.37 2.084,6.858z"/>
 </g>
</svg>